<svg width="512" height="513" viewBox="0 0 512 513" fill="none" xmlns="http://www.w3.org/2000/svg">
<path d="M42.668 51.2964H81.164C93.582 16.0294 129.591 -5.16463 166.454 1.08937C203.313 7.34337 230.313 39.2374 230.403 76.6244V76.8974C230.539 82.7924 230.215 89.2614 229.871 96.1244C228.761 118.487 227.645 143.608 242.051 153.843C265.853 154.521 288.49 164.292 305.309 181.147L305.519 181.362L407.254 290.437C408.047 290.394 408.809 290.229 409.602 290.229H469.336C492.886 290.257 511.973 309.343 512.001 332.897C512.001 337.608 508.181 341.429 503.47 341.429H477.017C472.935 361.28 455.47 375.539 435.204 375.562H375.47C367.227 375.508 359.177 373.065 352.294 368.53C326.532 376.537 299.963 381.672 273.072 383.839V503.562C273.072 504.683 272.851 505.793 272.422 506.829C271.994 507.865 271.365 508.806 270.572 509.598C269.779 510.391 268.838 511.019 267.803 511.448C266.767 511.877 265.657 512.098 264.536 512.097H145.071C143.612 512.106 142.176 511.74 140.899 511.034C139.622 510.329 138.548 509.308 137.778 508.069C137.007 506.831 136.567 505.417 136.499 503.96C136.43 502.504 136.736 501.054 137.387 499.749C138.242 498.163 157.5 460.897 213.337 460.897V382.124C187.482 380.886 162.241 373.825 139.497 361.468C124 352.183 96.828 332.308 88.637 303.44C82.3254 278.955 83.9448 253.099 93.262 229.593C95.235 224.53 97.477 219.593 99.722 214.651C104.335 205.487 107.866 195.816 110.242 185.835C113.374 166.465 109.137 146.624 98.367 130.222C94.8604 126.552 91.7171 122.552 88.981 118.276C88.629 117.882 88.246 117.491 87.851 117.096C86.4828 115.693 85.6495 113.855 85.496 111.901C83.9317 108.858 82.5668 105.716 81.41 102.495H8.53497C3.82497 102.495 -6.10352e-05 98.6754 -6.10352e-05 93.9644C-0.00571803 88.3595 1.09409 82.8086 3.23636 77.6293C5.37862 72.4501 8.52131 67.7441 12.4845 63.7809C16.4477 59.8177 21.1537 56.675 26.3329 54.5328C31.5122 52.3905 37.0631 51.2907 42.668 51.2964ZM293.148 193.156C271.074 171.202 237.942 164.718 209.223 176.737C218.621 200.481 232.891 221.992 251.113 239.882C291.571 280.339 343.988 298.874 380.871 287.233L293.148 193.156ZM341.336 324.362H415.574L393.457 300.659C381.971 305.499 369.62 307.949 357.157 307.859C318.977 307.859 275.067 287.901 239.055 251.889C219.762 232.929 204.495 210.27 194.168 185.269C190.778 187.683 187.588 190.366 184.629 193.292C162.688 215.261 156.133 248.276 168.016 276.96C179.903 305.644 207.886 324.35 238.934 324.362H341.336ZM469.336 307.296H422.992L438.914 324.362H493.477C491.705 319.375 488.434 315.058 484.112 312.003C479.79 308.948 474.629 307.304 469.336 307.296ZM435.203 358.496C440.496 358.491 445.658 356.847 449.98 353.791C454.302 350.736 457.573 346.418 459.344 341.429H420.356C408.203 348.104 395.542 353.81 382.492 358.495L435.203 358.496ZM221.867 495.029H256.001V477.963C245.519 477.828 235.103 479.638 225.282 483.303C225.208 483.303 225.13 483.353 225.052 483.381C217.949 486.087 211.383 490.031 205.657 495.029H221.867ZM183 495.029C187.212 489.031 192.303 483.701 198.102 479.217C185.13 481.035 172.948 486.521 162.989 495.029H183ZM230.403 463.893C238.784 461.869 247.378 460.863 256 460.896V384.002C247.16 383.924 238.594 383.721 230.403 383.318V463.893ZM109.168 235.803C101.168 255.85 99.731 277.916 105.063 298.83C111.61 321.998 134.93 338.842 148.262 346.822C176.231 363.615 214.972 367.029 264.535 367.029C293.497 365.751 322.156 360.584 349.742 351.669C350.29 351.437 350.861 351.263 351.446 351.15C361.305 348.135 370.801 344.861 379.606 341.47H238.934C190.614 341.537 150.137 304.908 145.394 256.818C140.653 208.728 173.192 164.896 220.598 155.521C210.672 138.751 211.844 115.221 212.824 95.3264C213.156 88.7054 213.473 82.4594 213.336 77.1504V76.8964C213.391 46.7764 191.008 21.3224 161.126 17.5294C131.246 13.7364 103.211 32.7834 95.739 61.9634C93.2624 71.7478 93.2624 81.995 95.739 91.7794C97.2078 97.3441 99.451 102.675 102.403 107.615C103.914 109.271 105.328 111.029 106.711 112.736C106.941 113.026 107.199 113.299 107.43 113.588C109.002 115.6 110.492 117.673 111.899 119.803C111.949 119.869 111.969 119.955 112.019 120.021C112.071 120.091 112.199 120.264 112.274 120.381C112.352 120.501 112.403 120.482 112.454 120.561C125.746 140.774 130.926 165.255 126.961 189.119C124.343 200.41 120.402 211.351 115.219 221.717C113.145 226.381 111.019 231.033 109.169 235.803H109.168ZM77.332 85.4294C76.996 82.5974 76.821 79.7494 76.801 76.8974C76.8196 74.0447 76.9969 71.1953 77.332 68.3624H42.668C35.8982 68.3652 29.403 71.0396 24.594 75.8044C21.8917 78.5286 19.8229 81.8148 18.535 85.4294H77.332Z" fill="white"/>
<path d="M136.535 59.8314C136.535 64.5424 140.355 68.3624 145.071 68.3624C147.333 68.3618 149.503 67.4628 151.102 65.863C152.702 64.2633 153.601 62.0937 153.601 59.8314C153.601 57.5683 152.702 55.3979 151.102 53.7976C149.501 52.1974 147.331 51.2984 145.068 51.2984C142.805 51.2984 140.634 52.1974 139.034 53.7976C137.434 55.3979 136.535 57.5683 136.535 59.8314Z" fill="white"/>
</svg>
