<svg width="512" height="513" viewBox="0 0 512 513" fill="none" xmlns="http://www.w3.org/2000/svg">
<path d="M469.333 51.2964H430.837C418.419 16.0294 382.41 -5.16463 345.547 1.08937C308.688 7.34337 281.688 39.2374 281.598 76.6244V76.8974C281.462 82.7924 281.786 89.2614 282.13 96.1244C283.24 118.487 284.356 143.608 269.95 153.843C246.148 154.521 223.511 164.292 206.692 181.147L206.482 181.362L104.747 290.437C103.954 290.394 103.192 290.229 102.399 290.229H42.665C19.115 290.257 0.028 309.343 0 332.897C0 337.608 3.82 341.429 8.531 341.429H34.984C39.066 361.28 56.531 375.539 76.797 375.562H136.531C144.774 375.508 152.824 373.065 159.707 368.53C185.469 376.537 212.038 381.672 238.929 383.839V503.562C238.929 504.683 239.15 505.793 239.579 506.829C240.007 507.865 240.636 508.806 241.429 509.598C242.222 510.391 243.163 511.019 244.198 511.448C245.234 511.877 246.344 512.098 247.465 512.097H366.93C368.389 512.106 369.825 511.74 371.102 511.034C372.379 510.329 373.453 509.308 374.223 508.069C374.994 506.831 375.434 505.417 375.502 503.96C375.571 502.504 375.265 501.054 374.614 499.749C373.759 498.163 354.501 460.897 298.664 460.897V382.124C324.519 380.886 349.76 373.825 372.504 361.468C388.001 352.183 415.173 332.308 423.364 303.44C429.676 278.955 428.056 253.099 418.739 229.593C416.766 224.53 414.524 219.593 412.279 214.651C407.666 205.487 404.135 195.816 401.759 185.835C398.627 166.465 402.864 146.624 413.634 130.222C417.141 126.552 420.284 122.552 423.02 118.276C423.372 117.882 423.755 117.491 424.15 117.096C425.518 115.693 426.351 113.855 426.505 111.901C428.069 108.858 429.434 105.716 430.591 102.495H503.466C508.176 102.495 512.001 98.6754 512.001 93.9644C512.007 88.3595 510.907 82.8086 508.765 77.6293C506.622 72.4501 503.48 67.7441 499.516 63.7809C495.553 59.8177 490.847 56.675 485.668 54.5328C480.489 52.3905 474.938 51.2907 469.333 51.2964ZM218.853 193.156C240.927 171.202 274.059 164.718 302.778 176.737C293.38 200.481 279.11 221.992 260.888 239.882C220.43 280.339 168.013 298.874 131.13 287.233L218.853 193.156ZM170.665 324.362H96.427L118.544 300.659C130.03 305.499 142.381 307.949 154.844 307.859C193.024 307.859 236.934 287.901 272.946 251.889C292.239 232.929 307.506 210.27 317.833 185.269C321.223 187.683 324.413 190.366 327.372 193.292C349.313 215.261 355.868 248.276 343.985 276.96C332.098 305.644 304.115 324.35 273.067 324.362H170.665ZM42.665 307.296H89.009L73.087 324.362H18.524C20.2962 319.375 23.5673 315.058 27.8889 312.003C32.2106 308.948 37.3724 307.304 42.665 307.296ZM76.798 358.496C71.5048 358.491 66.343 356.847 62.0208 353.791C57.6987 350.736 54.4278 346.418 52.657 341.429H91.645C103.798 348.104 116.459 353.81 129.509 358.495L76.798 358.496ZM290.134 495.029H256V477.963C266.482 477.828 276.898 479.638 286.719 483.303C286.793 483.303 286.871 483.353 286.949 483.381C294.051 486.087 300.618 490.031 306.344 495.029H290.134ZM329.001 495.029C324.789 489.031 319.698 483.701 313.899 479.217C326.871 481.035 339.053 486.521 349.012 495.029H329.001ZM281.598 463.893C273.217 461.869 264.623 460.863 256.001 460.896V384.002C264.841 383.924 273.407 383.721 281.598 383.318V463.893ZM402.833 235.803C410.833 255.85 412.27 277.916 406.938 298.83C400.391 321.998 377.071 338.842 363.739 346.822C335.77 363.615 297.029 367.029 247.466 367.029C218.504 365.751 189.845 360.584 162.259 351.669C161.711 351.437 161.14 351.263 160.555 351.15C150.696 348.135 141.2 344.861 132.395 341.47H273.067C321.387 341.537 361.864 304.908 366.607 256.818C371.348 208.728 338.809 164.896 291.403 155.521C301.329 138.751 300.157 115.221 299.177 95.3264C298.845 88.7054 298.528 82.4594 298.665 77.1504V76.8964C298.61 46.7764 320.993 21.3224 350.875 17.5294C380.755 13.7364 408.79 32.7834 416.262 61.9634C418.739 71.7478 418.739 81.995 416.262 91.7794C414.793 97.3441 412.55 102.675 409.598 107.615C408.087 109.271 406.673 111.029 405.29 112.736C405.06 113.026 404.802 113.299 404.571 113.588C402.999 115.6 401.509 117.673 400.102 119.803C400.052 119.869 400.032 119.955 399.982 120.021C399.93 120.091 399.802 120.264 399.727 120.381C399.649 120.501 399.598 120.482 399.547 120.561C386.255 140.774 381.075 165.255 385.04 189.119C387.658 200.41 391.599 211.351 396.782 221.717C398.856 226.381 400.982 231.033 402.832 235.803H402.833ZM434.669 85.4294C435.005 82.5974 435.18 79.7494 435.2 76.8974C435.181 74.0447 435.004 71.1953 434.669 68.3624H469.333C476.103 68.3652 482.598 71.0396 487.407 75.8044C490.109 78.5286 492.178 81.8148 493.466 85.4294H434.669Z" fill="white"/>
<path d="M375.466 59.8314C375.466 64.5424 371.646 68.3624 366.93 68.3624C364.668 68.3618 362.498 67.4628 360.899 65.863C359.299 64.2633 358.4 62.0937 358.4 59.8314C358.4 57.5683 359.299 55.3979 360.899 53.7976C362.5 52.1974 364.67 51.2984 366.933 51.2984C369.196 51.2984 371.367 52.1974 372.967 53.7976C374.567 55.3979 375.466 57.5683 375.466 59.8314Z" fill="white"/>
</svg>
